<svg width="206" height="31" viewBox="0 0 206 31" fill="none" xmlns="http://www.w3.org/2000/svg">
<path d="M9.88 4.34899C9.88 3.23399 8.7 2.51799 6.349 2.24299L6.69 0.817993H20.876L20.535 2.24299C19.3306 2.2581 18.145 2.54381 17.066 3.07899C16.7235 3.27513 16.4237 3.53781 16.1843 3.85159C15.9449 4.16536 15.7707 4.52386 15.672 4.90599L11.15 24.45C10.958 25.136 10.8538 25.8437 10.84 26.556C10.8017 26.8407 10.8564 27.1302 10.9958 27.3814C11.1353 27.6325 11.3521 27.832 11.614 27.95C12.7708 28.2795 13.9761 28.4054 15.176 28.322C18.025 28.322 19.884 27.95 20.782 27.238C21.6325 26.4771 22.4197 25.6484 23.136 24.76C24.065 23.645 25.025 22.406 26.016 20.981H27.441L24.777 29.963H0L0.279 28.538C1.35681 28.5779 2.43151 28.3986 3.438 28.011C3.82382 27.8396 4.16297 27.5783 4.42708 27.249C4.69118 26.9196 4.87255 26.5318 4.956 26.118L9.756 5.27799C9.83514 4.97456 9.87678 4.66256 9.88 4.34899Z" fill="#FAFAFA"/>
<path d="M47.078 30.335C46.0774 30.3666 45.092 30.0852 44.259 29.53C43.5302 29.016 43.0302 28.2384 42.865 27.362H42.71C41.905 28.0781 41.0454 28.7305 40.139 29.313C39.5274 29.6783 38.885 29.9892 38.219 30.242C37.5447 30.4905 36.8315 30.6164 36.113 30.614C35.1765 30.6635 34.241 30.4997 33.3771 30.1349C32.5132 29.77 31.7435 29.2138 31.126 28.508C29.857 26.8288 29.2313 24.7507 29.362 22.65C29.3503 20.3513 29.9036 18.0849 30.973 16.05C32.0107 14.0266 33.5454 12.3 35.433 11.032C37.2075 9.80309 39.3145 9.14416 41.473 9.143C42.4782 9.13054 43.4798 9.2653 44.446 9.543C45.2336 9.75185 45.9783 10.0978 46.646 10.565L51.695 9.481L51.943 9.76L48.753 23.419C48.551 24.1472 48.4263 24.8947 48.381 25.649C48.348 25.9349 48.3781 26.2245 48.4692 26.4975C48.5602 26.7704 48.71 27.0202 48.908 27.229C49.4325 27.564 50.0529 27.7166 50.673 27.663C51.4794 27.6527 52.2772 27.4951 53.027 27.198L52.686 28.747C51.7162 29.1641 50.7236 29.5261 49.713 29.831C48.8767 30.1718 47.981 30.3431 47.078 30.335ZM45.562 14.322C45.5995 13.8665 45.5418 13.4082 45.3925 12.9763C45.2432 12.5443 45.0057 12.1482 44.695 11.813C44.0254 11.2129 43.146 10.9013 42.248 10.946C41.5822 10.9757 40.9291 11.1391 40.3278 11.4265C39.7265 11.714 39.1892 12.1195 38.748 12.619C37.5521 13.8813 36.6526 15.3944 36.115 17.048C35.4636 18.8669 35.1285 20.784 35.124 22.716C35.0165 24.0808 35.3077 25.4475 35.962 26.65C36.2565 27.0562 36.65 27.3805 37.105 27.5919C37.5601 27.8033 38.0616 27.8949 38.562 27.858C39.862 27.858 41.35 27.053 42.929 25.442L45.562 14.322Z" fill="#FAFAFA"/>
<path d="M84.463 0.817976C86.7864 0.68287 89.0995 1.22069 91.125 2.36698C91.8699 2.84012 92.4766 3.50149 92.884 4.28426C93.2914 5.06702 93.4849 5.94345 93.445 6.82498C93.4736 8.78686 92.8531 10.7032 91.68 12.276C90.3814 13.9328 88.658 15.2067 86.693 15.962C84.4149 16.8551 81.9848 17.2967 79.538 17.262H76.317L74.425 25.379C74.3073 25.7711 74.2447 26.1776 74.239 26.587C74.244 26.8561 74.3252 27.1182 74.4732 27.343C74.6211 27.5678 74.8298 27.746 75.075 27.857C75.9954 28.2561 76.9833 28.4766 77.986 28.507L77.645 29.932H63.525L63.804 28.507C64.8851 28.5542 65.9635 28.3637 66.963 27.949C67.3473 27.767 67.6842 27.4987 67.9476 27.1649C68.2109 26.8312 68.3935 26.441 68.481 26.025L73.281 5.17998L73.405 4.27998C73.3822 3.99552 73.2841 3.72224 73.1209 3.48817C72.9576 3.25411 72.7351 3.06767 72.476 2.94798C71.6513 2.50293 70.7452 2.22912 69.812 2.14298L70.125 0.724976H84.465L84.463 0.817976ZM86.91 7.07498C86.956 6.4419 86.8635 5.80641 86.639 5.21269C86.4145 4.61897 86.0633 4.08127 85.61 3.63698C84.5157 2.79261 83.1471 2.38426 81.769 2.49098H79.663L76.69 15.469H78.49C80.0221 15.5099 81.5414 15.1806 82.919 14.509C84.1743 13.873 85.194 12.8532 85.83 11.598C86.5706 10.2071 86.9421 8.64943 86.909 7.07398L86.91 7.07498Z" fill="#FAFAFA"/>
<path d="M113.112 13.022C113.156 14.0862 112.815 15.1307 112.152 15.964C111.852 16.3374 111.469 16.6355 111.033 16.8345C110.598 17.0334 110.122 17.1278 109.643 17.11C108.925 17.1478 108.215 16.9404 107.63 16.522C107.39 16.3556 107.194 16.1332 107.059 15.8741C106.925 15.6151 106.855 15.3271 106.856 15.035C106.854 14.5131 106.96 13.9964 107.166 13.517C107.352 13.017 107.6 12.433 107.878 11.783C105.822 12.3969 104.013 13.6433 102.706 15.345L99.392 29.995H94.092L97.003 17.017C97.1492 16.4979 97.263 15.9702 97.344 15.437C97.4411 14.9367 97.4929 14.4287 97.499 13.919C97.5423 13.4209 97.3998 12.9244 97.099 12.525C96.8698 12.3426 96.6066 12.2075 96.3247 12.1276C96.0428 12.0478 95.7479 12.0248 95.457 12.06C95.0611 12.0793 94.6674 12.1311 94.28 12.215C93.8687 12.2955 93.4647 12.4095 93.072 12.556L93.472 10.945C95.2013 10.1111 97.0709 9.60681 98.985 9.45803C100.009 9.39022 101.025 9.67424 101.865 10.263C102.617 10.9916 103.07 11.9748 103.135 13.02H103.259C104.653 11.72 105.644 10.883 106.259 10.42C106.789 10.0385 107.359 9.71657 107.959 9.46003C108.504 9.25969 109.079 9.15482 109.659 9.15003C110.123 9.12662 110.587 9.1968 111.023 9.3564C111.46 9.516 111.86 9.76175 112.199 10.079C112.862 10.9104 113.188 11.9611 113.112 13.022Z" fill="#FAFAFA"/>
<path d="M133.648 13.6719C133.668 14.6667 133.399 15.6459 132.874 16.4909C132.296 17.3769 131.522 18.1186 130.613 18.6589C129.359 19.3904 128.014 19.9529 126.613 20.3319C124.419 20.9279 122.183 21.3526 119.923 21.6019C119.985 25.8139 121.534 27.9199 124.538 27.9199C125.834 27.9462 127.115 27.6361 128.255 27.0199C129.547 26.2068 130.672 25.1546 131.569 23.9199L132.932 24.9729C131.794 26.6812 130.265 28.0933 128.472 29.0919C126.774 30.0668 124.855 30.5895 122.897 30.6099C121.746 30.6803 120.592 30.5222 119.503 30.1446C118.413 29.767 117.409 29.1775 116.548 28.4099C115.774 27.6018 115.174 26.6435 114.785 25.5943C114.396 24.5451 114.227 23.4273 114.287 22.3099C114.278 20.0039 114.854 17.7333 115.96 15.7099C117.014 13.7133 118.599 12.0465 120.54 10.8934C122.481 9.74023 124.702 9.14555 126.96 9.17492C128.688 9.07 130.409 9.46805 131.916 10.3209C132.481 10.6704 132.94 11.1667 133.245 11.7569C133.55 12.347 133.69 13.0089 133.648 13.6719ZM128.414 13.6719C128.455 12.9005 128.237 12.1376 127.795 11.5039C127.578 11.2406 127.302 11.033 126.989 10.8984C126.676 10.7637 126.335 10.7059 125.995 10.7299C125.002 10.7722 124.067 11.2067 123.395 11.9379C122.45 12.8922 121.712 14.0308 121.227 15.2829C120.618 16.8027 120.212 18.3961 120.019 20.0219C121.66 19.8128 123.278 19.4499 124.851 18.9379C125.612 18.6589 126.308 18.2267 126.895 17.6679C127.394 17.1961 127.776 16.6139 128.01 15.9679C128.271 15.2303 128.408 14.4544 128.414 13.6719Z" fill="#FAFAFA"/>
<path d="M154.337 30.335C153.26 30.3785 152.201 30.0505 151.337 29.406C150.953 29.0962 150.637 28.7109 150.408 28.274C150.179 27.8372 150.042 27.3579 150.005 26.866H149.875C148.634 28.0227 147.224 28.9834 145.694 29.715C144.482 30.2382 143.173 30.5019 141.853 30.489C141.262 30.5219 140.671 30.4375 140.113 30.2408C139.554 30.0442 139.041 29.739 138.601 29.343C138.196 28.9449 137.88 28.4663 137.672 27.9381C137.464 27.41 137.369 26.8441 137.393 26.277C137.417 25.2089 137.573 24.1478 137.858 23.118L139.407 16.985C139.665 16.0115 139.832 15.0163 139.907 14.012C139.958 13.4599 139.803 12.9085 139.473 12.463C139.008 12.1246 138.434 11.97 137.862 12.029C137.046 12.0717 136.241 12.2404 135.477 12.529L135.877 10.918C137.568 10.0984 139.394 9.59447 141.266 9.431C142.373 9.3518 143.468 9.69482 144.332 10.391C144.691 10.7249 144.972 11.1342 145.154 11.5895C145.336 12.0447 145.415 12.5346 145.385 13.024C145.389 13.9456 145.264 14.8633 145.013 15.75L143.375 22.313C143.109 23.1991 142.953 24.1147 142.91 25.039C142.91 26.712 143.653 27.579 145.14 27.579C145.999 27.5522 146.838 27.3185 147.587 26.898C148.584 26.3826 149.493 25.7138 150.282 24.916L153.782 9.77L158.831 9.522L159.079 9.801L156.106 22.748C155.802 23.7026 155.615 24.6905 155.549 25.69C155.517 25.9802 155.547 26.2739 155.638 26.5515C155.728 26.829 155.878 27.0839 156.075 27.299C156.594 27.6484 157.219 27.8022 157.841 27.733C158.268 27.7218 158.694 27.6699 159.111 27.578C159.482 27.4961 159.844 27.382 160.195 27.237L159.854 28.848C158.739 29.282 157.717 29.653 156.819 29.932C156.017 30.19 155.18 30.3258 154.337 30.335Z" fill="#FAFAFA"/>
<path d="M177.567 12.216C177.552 11.8038 177.628 11.3933 177.788 11.0133C177.949 10.6333 178.19 10.2929 178.496 10.016C179.105 9.4624 179.903 9.16323 180.726 9.18C181.195 9.1583 181.662 9.25468 182.084 9.46033C182.506 9.66597 182.87 9.97428 183.142 10.357C183.793 11.5382 184.084 12.8844 183.978 14.229C183.971 17.0053 183.347 19.7454 182.151 22.251C181.078 24.649 179.429 26.7445 177.351 28.351C175.523 29.7939 173.268 30.5891 170.94 30.612C169.112 30.7136 167.308 30.1526 165.86 29.032C165.236 28.4818 164.745 27.7976 164.423 27.0306C164.101 26.2635 163.957 25.4336 164.002 24.603C164.015 23.7336 164.14 22.8694 164.374 22.032C164.622 21.103 164.901 20.174 165.21 19.213C165.519 18.252 165.798 17.355 166.046 16.456C166.277 15.6708 166.402 14.8583 166.418 14.04C166.464 13.4979 166.31 12.9577 165.984 12.522C165.75 12.3374 165.481 12.2013 165.194 12.1214C164.907 12.0416 164.607 12.0197 164.311 12.057C163.481 12.0871 162.662 12.2656 161.895 12.584L162.236 10.973C163.96 10.1446 165.815 9.62059 167.718 9.424C168.277 9.373 168.841 9.4374 169.374 9.6132C169.907 9.789 170.399 10.0725 170.818 10.446C171.155 10.8139 171.416 11.2451 171.586 11.7145C171.756 12.184 171.83 12.6824 171.806 13.181C171.8 14.1921 171.676 15.1991 171.434 16.181C171.186 17.203 170.907 18.225 170.598 19.181C170.288 20.172 170.009 21.101 169.762 22C169.534 22.7646 169.409 23.5563 169.39 24.354C169.359 24.8423 169.425 25.332 169.585 25.7946C169.744 26.2572 169.994 26.6835 170.319 27.049C170.667 27.3712 171.077 27.6196 171.524 27.7793C171.971 27.939 172.445 28.0065 172.919 27.978C174.214 27.9615 175.47 27.539 176.512 26.77C177.707 25.9066 178.666 24.7563 179.3 23.425C180.001 22.0322 180.362 20.4932 180.353 18.934C180.322 17.6507 179.814 16.4249 178.928 15.496C178.131 14.579 177.653 13.4279 177.567 12.216Z" fill="#FAFAFA"/>
<path d="M206 13.672C206.02 14.6668 205.751 15.646 205.226 16.491C204.648 17.377 203.874 18.1187 202.965 18.659C201.711 19.3904 200.366 19.953 198.965 20.332C196.771 20.928 194.534 21.3526 192.275 21.602C192.337 25.814 193.886 27.92 196.89 27.92C198.186 27.9463 199.467 27.6362 200.607 27.02C201.899 26.2069 203.024 25.1547 203.921 23.92L205.284 24.973C204.146 26.6813 202.617 28.0934 200.824 29.092C199.126 30.0669 197.207 30.5896 195.249 30.61C194.098 30.6804 192.944 30.5223 191.855 30.1447C190.765 29.7671 189.761 29.1776 188.9 28.41C188.126 27.6019 187.526 26.6436 187.137 25.5944C186.748 24.5452 186.579 23.4274 186.639 22.31C186.63 20.0041 187.205 17.7334 188.311 15.71C189.365 13.7134 190.95 12.0466 192.891 10.8935C194.832 9.74033 197.053 9.14566 199.311 9.17502C201.039 9.07016 202.76 9.46821 204.267 10.321C204.827 10.6754 205.283 11.1726 205.588 11.7616C205.892 12.3505 206.035 13.0099 206 13.672ZM200.735 13.672C200.775 12.9005 200.557 12.1375 200.115 11.504C199.898 11.2407 199.622 11.0331 199.309 10.8985C198.996 10.7638 198.655 10.7061 198.315 10.73C197.323 10.7723 196.387 11.2068 195.715 11.938C194.77 12.8923 194.032 14.0309 193.547 15.283C192.939 16.8026 192.534 18.3957 192.342 20.021C193.983 19.8119 195.601 19.449 197.174 18.937C197.935 18.658 198.631 18.2258 199.218 17.667C199.717 17.1952 200.099 16.613 200.333 15.967C200.593 15.2296 200.729 14.454 200.735 13.672Z" fill="#FAFAFA"/>
</svg>
