<svg width="27" height="24" viewBox="0 0 27 24" fill="none" xmlns="http://www.w3.org/2000/svg">
<path d="M0.953001 4.289H25.737C25.9897 4.289 26.2322 4.18859 26.4109 4.00987C26.5896 3.83115 26.69 3.58875 26.69 3.336V0.952999C26.69 0.700248 26.5896 0.457851 26.4109 0.279129C26.2322 0.100407 25.9897 0 25.737 0H0.953001C0.700249 0 0.45785 0.100407 0.279128 0.279129C0.100406 0.457851 5.24707e-07 0.700248 5.24707e-07 0.952999V3.336C5.24707e-07 3.58875 0.100406 3.83115 0.279128 4.00987C0.45785 4.18859 0.700249 4.289 0.953001 4.289ZM0.953001 13.821H25.737C25.9897 13.821 26.2322 13.7206 26.4109 13.5419C26.5896 13.3631 26.69 13.1207 26.69 12.868V10.485C26.69 10.2322 26.5896 9.98985 26.4109 9.81113C26.2322 9.6324 25.9897 9.532 25.737 9.532H0.953001C0.700249 9.532 0.45785 9.6324 0.279128 9.81113C0.100406 9.98985 5.24707e-07 10.2322 5.24707e-07 10.485V12.868C-0.000130885 12.9932 0.0244222 13.1173 0.0722561 13.233C0.12009 13.3487 0.190267 13.4539 0.278774 13.5425C0.367281 13.6311 0.472384 13.7014 0.588072 13.7494C0.703761 13.7973 0.827767 13.822 0.953001 13.822V13.821ZM0.953001 23.353H25.737C25.9897 23.353 26.2322 23.2526 26.4109 23.0739C26.5896 22.8952 26.69 22.6528 26.69 22.4V20.018C26.69 19.8928 26.6653 19.7689 26.6175 19.6533C26.5696 19.5377 26.4994 19.4326 26.4109 19.3441C26.3224 19.2556 26.2173 19.1854 26.1017 19.1375C25.9861 19.0896 25.8622 19.065 25.737 19.065H0.953001C0.827851 19.065 0.703927 19.0896 0.588303 19.1375C0.47268 19.1854 0.367622 19.2556 0.279128 19.3441C0.190634 19.4326 0.120436 19.5377 0.0725433 19.6533C0.0246506 19.7689 5.24707e-07 19.8928 5.24707e-07 20.018V22.4C-0.000130885 22.5252 0.0244222 22.6493 0.0722561 22.765C0.12009 22.8807 0.190267 22.9859 0.278774 23.0745C0.367281 23.1631 0.472384 23.2334 0.588072 23.2814C0.703761 23.3293 0.827767 23.354 0.953001 23.354V23.353Z" fill="#FAFAFA"/>
</svg>
